<svg width="44" height="61" viewBox="0 0 44 61" fill="none" xmlns="http://www.w3.org/2000/svg">
<mask id="path-1-inside-1_101:149" fill="white">
<path d="M1.93511e-06 39.5C1.68828e-06 36.6766 0.569048 33.8808 1.67465 31.2723C2.78025 28.6638 4.40076 26.2937 6.44365 24.2972C8.48654 22.3007 10.9118 20.7171 13.581 19.6366C16.2501 18.5561 19.1109 18 22 18C24.8891 18 27.7499 18.5561 30.419 19.6366C33.0882 20.7171 35.5135 22.3007 37.5563 24.2972C39.5992 26.2937 41.2197 28.6638 42.3253 31.2723C43.431 33.8808 44 36.6766 44 39.5L22 39.5L1.93511e-06 39.5Z"/>
</mask>
<path d="M1.93511e-06 39.5C1.68828e-06 36.6766 0.569048 33.8808 1.67465 31.2723C2.78025 28.6638 4.40076 26.2937 6.44365 24.2972C8.48654 22.3007 10.9118 20.7171 13.581 19.6366C16.2501 18.5561 19.1109 18 22 18C24.8891 18 27.7499 18.5561 30.419 19.6366C33.0882 20.7171 35.5135 22.3007 37.5563 24.2972C39.5992 26.2937 41.2197 28.6638 42.3253 31.2723C43.431 33.8808 44 36.6766 44 39.5L22 39.5L1.93511e-06 39.5Z" fill="#FFABC4" stroke="#FFFEF2" stroke-width="6" mask="url(#path-1-inside-1_101:149)"/>
<circle cx="21.5" cy="11.5" r="10" fill="#FFABC4" stroke="#FFFEF2" stroke-width="3"/>
<rect x="12" y="28" width="20" height="10" fill="#5A493A" stroke="#FFFEF2" stroke-width="2"/>
<line x1="12.5" y1="28" x2="12.5" y2="22" stroke="#FFFEF2" stroke-width="3"/>
<line x1="12.5" y1="28" x2="12.5" y2="22" stroke="#FFFEF2" stroke-width="3"/>
<line x1="12.5" y1="28" x2="12.5" y2="22" stroke="#FFFEF2" stroke-width="3"/>
<line x1="31.5" y1="28" x2="31.5" y2="22" stroke="#FFFEF2" stroke-width="3"/>
<line x1="31.5" y1="28" x2="31.5" y2="22" stroke="#FFFEF2" stroke-width="3"/>
<line x1="31.5" y1="28" x2="31.5" y2="22" stroke="#FFFEF2" stroke-width="3"/>
</svg>
