<svg width="70" height="105" viewBox="0 0 70 105" fill="none" xmlns="http://www.w3.org/2000/svg">
<circle cx="34.4162" cy="31.0577" r="12" transform="rotate(14.7989 34.4162 31.0577)" fill="#5A493A" stroke="black"/>
<circle cx="46.9851" cy="34.3783" r="12" transform="rotate(14.7989 46.9851 34.3783)" fill="#FFABC4" stroke="black"/>
<circle cx="44.0486" cy="18.0879" r="12" transform="rotate(14.7989 44.0486 18.0879)" fill="#FFFEF2" stroke="black"/>
<path d="M22.7169 89.5178L19.8583 36.7981C19.7664 35.104 21.3528 33.8123 22.9932 34.2457L54.3761 42.5368C56.0164 42.9701 56.7579 44.8768 55.8413 46.3045L27.317 90.7331C26.0062 92.7747 22.8483 91.9404 22.7169 89.5178Z" fill="#DAB798" stroke="black"/>
<line x1="37.6137" y1="37.9569" x2="20.5021" y2="47.9165" stroke="black"/>
<line x1="47.5184" y1="59.1912" x2="21.851" y2="74.1306" stroke="black"/>
<line x1="53.0829" y1="42.0437" x2="21.3043" y2="60.5401" stroke="black"/>
<line x1="37.5388" y1="38.2401" x2="48.9212" y2="57.7961" stroke="black"/>
<line x1="24.0033" y1="34.664" x2="42.4997" y2="66.4426" stroke="black"/>
<line x1="20.6278" y1="51.3555" x2="35.5672" y2="77.0229" stroke="black"/>
<line x1="21.7762" y1="74.4138" x2="29.6017" y2="87.8586" stroke="black"/>
<line x1="22.4056" y1="84.9232" x2="35.8504" y2="77.0978" stroke="black"/>
</svg>
