<svg width="50" height="60" viewBox="0 0 50 60" fill="none" xmlns="http://www.w3.org/2000/svg">
<path d="M40.1681 16.1209C40.1681 23.3214 33.514 29.6384 24.6785 29.6384C15.8431 29.6384 9.18896 23.3214 9.18896 16.1209C9.18896 8.92049 15.8431 2.60352 24.6785 2.60352C33.514 2.60352 40.1681 8.92049 40.1681 16.1209Z" fill="#5A493A" stroke="#FFFEF2" stroke-width="5"/>
<rect x="3.1925" y="18.8601" width="43.5718" height="38.0319" rx="2.5" fill="#FFABC4" stroke="#FFFEF2" stroke-width="5"/>
<path d="M25.0178 51.7612C24.8098 51.7612 24.6338 51.6892 24.4898 51.5452C24.3458 51.4012 24.2738 51.2252 24.2738 51.0172V49.5292C23.3458 49.4812 22.4658 49.3132 21.6338 49.0252C20.8178 48.7372 20.1058 48.3452 19.4978 47.8492C18.9058 47.3372 18.4658 46.7372 18.1778 46.0492C18.0338 45.7132 18.0338 45.4092 18.1778 45.1372C18.3378 44.8492 18.6098 44.6652 18.9938 44.5852C19.2658 44.5212 19.5298 44.5692 19.7858 44.7292C20.0418 44.8732 20.2338 45.0892 20.3618 45.3772C20.6018 45.9052 21.0818 46.3532 21.8018 46.7212C22.5218 47.0732 23.3458 47.2812 24.2738 47.3452V40.7932C22.5778 40.5372 21.2338 39.9452 20.2418 39.0172C19.2658 38.0892 18.7778 36.9532 18.7778 35.6092C18.7778 34.6652 19.0178 33.8492 19.4978 33.1612C19.9938 32.4572 20.6498 31.9052 21.4658 31.5052C22.2978 31.0892 23.2338 30.8332 24.2738 30.7372V29.5852C24.2738 29.3612 24.3458 29.1852 24.4898 29.0572C24.6338 28.9132 24.8098 28.8412 25.0178 28.8412C25.2418 28.8412 25.4178 28.9132 25.5458 29.0572C25.6898 29.1852 25.7618 29.3612 25.7618 29.5852V30.7372C27.0098 30.8332 28.0258 31.1692 28.8098 31.7452C29.5938 32.3052 30.2418 33.0252 30.7538 33.9052C30.9618 34.2572 31.0498 34.5852 31.0178 34.8892C30.9858 35.1772 30.8338 35.4092 30.5618 35.5852C30.2898 35.7772 29.9938 35.8252 29.6738 35.7292C29.3538 35.6172 29.1058 35.4092 28.9298 35.1052C28.6098 34.5132 28.2018 34.0252 27.7058 33.6412C27.2098 33.2572 26.5618 33.0092 25.7618 32.8972V38.9212C27.4098 39.1452 28.7138 39.7132 29.6738 40.6252C30.6498 41.5372 31.1378 42.7372 31.1378 44.2252C31.1378 45.2972 30.8818 46.2092 30.3698 46.9612C29.8738 47.6972 29.2098 48.2812 28.3778 48.7132C27.5618 49.1452 26.6898 49.4092 25.7618 49.5052V51.0172C25.7618 51.2252 25.6898 51.4012 25.5458 51.5452C25.4178 51.6892 25.2418 51.7612 25.0178 51.7612ZM21.1538 35.6332C21.1538 36.0492 21.2338 36.4572 21.3938 36.8572C21.5698 37.2572 21.8818 37.6252 22.3298 37.9612C22.7778 38.2812 23.4258 38.5292 24.2738 38.7052V32.8732C23.3618 32.9692 22.6098 33.2492 22.0178 33.7132C21.4418 34.1772 21.1538 34.8172 21.1538 35.6332ZM28.7378 44.2972C28.7378 43.5772 28.5058 42.9212 28.0418 42.3292C27.5778 41.7212 26.8178 41.2892 25.7618 41.0332V47.2972C26.5778 47.1532 27.2738 46.8332 27.8498 46.3372C28.4418 45.8252 28.7378 45.1452 28.7378 44.2972Z" fill="#5A493A"/>
</svg>
