<svg width="38" height="38" viewBox="0 0 38 38" fill="none" xmlns="http://www.w3.org/2000/svg">
<circle cx="19" cy="19" r="17.5" stroke="#FFFEF2" stroke-width="3"/>
<path d="M12.3913 17.5C11.5629 17.5 10.8913 18.1716 10.8913 19C10.8913 19.8284 11.5629 20.5 12.3913 20.5V17.5ZM27.4954 20.0607C28.0812 19.4749 28.0812 18.5251 27.4954 17.9393L17.9495 8.3934C17.3637 7.80761 16.414 7.80761 15.8282 8.3934C15.2424 8.97918 15.2424 9.92893 15.8282 10.5147L24.3135 19L15.8282 27.4853C15.2424 28.0711 15.2424 29.0208 15.8282 29.6066C16.414 30.1924 17.3637 30.1924 17.9495 29.6066L27.4954 20.0607ZM12.3913 20.5L26.4348 20.5V17.5L12.3913 17.5V20.5Z" fill="#FFFEF2"/>
</svg>
